<svg width="91" height="21" viewBox="0 0 91 21" fill="none" xmlns="http://www.w3.org/2000/svg">
<path d="M0.76 16V1.1H2.16L7.76 9.22H6.98L12.56 1.1H13.96V16H12.36V3.26L12.88 3.46L7.4 11.4H7.32L1.86 3.46L2.36 3.26V16H0.76ZM22.1388 16.24C21.1388 16.24 20.2321 16 19.4188 15.52C18.6188 15.0267 17.9854 14.3533 17.5188 13.5C17.0521 12.6467 16.8188 11.68 16.8188 10.6C16.8188 9.52 17.0454 8.56667 17.4988 7.74C17.9521 6.9 18.5654 6.24 19.3388 5.76C20.1254 5.28 21.0054 5.04 21.9788 5.04C22.7521 5.04 23.4388 5.18667 24.0388 5.48C24.6521 5.76 25.1721 6.14667 25.5988 6.64C26.0254 7.12 26.3521 7.66667 26.5788 8.28C26.8054 8.88 26.9188 9.5 26.9188 10.14C26.9188 10.2733 26.9121 10.4267 26.8988 10.6C26.8854 10.76 26.8654 10.9267 26.8388 11.1H17.7788V9.7H25.9788L25.2588 10.3C25.3788 9.56667 25.2921 8.91333 24.9988 8.34C24.7188 7.75333 24.3121 7.29333 23.7788 6.96C23.2454 6.61333 22.6454 6.44 21.9788 6.44C21.3121 6.44 20.6921 6.61333 20.1188 6.96C19.5588 7.30667 19.1188 7.79333 18.7988 8.42C18.4788 9.03333 18.3521 9.76667 18.4188 10.62C18.3521 11.4733 18.4854 12.22 18.8188 12.86C19.1654 13.4867 19.6321 13.9733 20.2188 14.32C20.8188 14.6667 21.4588 14.84 22.1388 14.84C22.9254 14.84 23.5854 14.6533 24.1188 14.28C24.6521 13.9067 25.0854 13.44 25.4188 12.88L26.6988 13.56C26.4854 14.04 26.1588 14.4867 25.7188 14.9C25.2788 15.3 24.7521 15.6267 24.1388 15.88C23.5388 16.12 22.8721 16.24 22.1388 16.24ZM33.6634 16.12C32.7034 16.12 31.9634 15.84 31.4434 15.28C30.9234 14.72 30.6634 13.92 30.6634 12.88V6.78H28.6834V5.28H29.1834C29.6368 5.28 29.9968 5.13333 30.2634 4.84C30.5301 4.53333 30.6634 4.15333 30.6634 3.7V2.8H32.1634V5.28H34.5234V6.78H32.1634V12.88C32.1634 13.24 32.2168 13.56 32.3234 13.84C32.4301 14.1067 32.6101 14.32 32.8634 14.48C33.1301 14.64 33.4834 14.72 33.9234 14.72C34.0301 14.72 34.1568 14.7133 34.3034 14.7C34.4501 14.6867 34.5768 14.6733 34.6834 14.66V16C34.5234 16.04 34.3434 16.0667 34.1434 16.08C33.9434 16.1067 33.7834 16.12 33.6634 16.12ZM40.222 16.24C39.542 16.24 38.9354 16.1133 38.402 15.86C37.8687 15.5933 37.4487 15.2333 37.142 14.78C36.8354 14.3267 36.682 13.8067 36.682 13.22C36.682 12.66 36.802 12.1533 37.042 11.7C37.282 11.2333 37.6554 10.84 38.162 10.52C38.6687 10.2 39.3154 9.97333 40.102 9.84L44.302 9.14V10.5L40.462 11.14C39.6887 11.2733 39.1287 11.52 38.782 11.88C38.4487 12.24 38.282 12.6667 38.282 13.16C38.282 13.64 38.4687 14.0467 38.842 14.38C39.2287 14.7133 39.722 14.88 40.322 14.88C41.0554 14.88 41.6954 14.7267 42.242 14.42C42.7887 14.1 43.2154 13.6733 43.522 13.14C43.8287 12.6067 43.982 12.0133 43.982 11.36V8.64C43.982 8 43.7487 7.48 43.282 7.08C42.8154 6.68 42.2087 6.48 41.462 6.48C40.8087 6.48 40.2354 6.64667 39.742 6.98C39.2487 7.3 38.882 7.72 38.642 8.24L37.282 7.5C37.482 7.04667 37.7954 6.63333 38.222 6.26C38.662 5.88667 39.162 5.59333 39.722 5.38C40.282 5.15333 40.862 5.04 41.462 5.04C42.2487 5.04 42.942 5.19333 43.542 5.5C44.1554 5.80667 44.6287 6.23333 44.962 6.78C45.3087 7.31333 45.482 7.93333 45.482 8.64V16H43.982V13.86L44.202 14.08C44.0154 14.48 43.722 14.8467 43.322 15.18C42.9354 15.5 42.4754 15.76 41.942 15.96C41.422 16.1467 40.8487 16.24 40.222 16.24ZM48.3473 16V1.1H54.6473C55.674 1.1 56.554 1.27333 57.2873 1.62C58.0207 1.96667 58.5807 2.46667 58.9673 3.12C59.354 3.76 59.5473 4.54 59.5473 5.46C59.5473 6.11333 59.3673 6.74 59.0073 7.34C58.6473 7.92667 58.054 8.42 57.2273 8.82V7.3C58.014 7.60667 58.6207 7.97333 59.0473 8.4C59.474 8.82667 59.7673 9.29333 59.9273 9.8C60.0873 10.2933 60.1673 10.8133 60.1673 11.36C60.1673 12.8267 59.6807 13.9667 58.7073 14.78C57.734 15.5933 56.3807 16 54.6473 16H48.3473ZM51.4473 13.3H55.0073C55.634 13.3 56.134 13.12 56.5073 12.76C56.8807 12.4 57.0673 11.9333 57.0673 11.36C57.0673 10.7733 56.8807 10.3 56.5073 9.94C56.134 9.58 55.634 9.4 55.0073 9.4H51.4473V13.3ZM51.4473 6.7H54.8673C55.3473 6.7 55.7273 6.56667 56.0073 6.3C56.3007 6.02 56.4473 5.65333 56.4473 5.2C56.4473 4.74667 56.3007 4.38667 56.0073 4.12C55.7273 3.84 55.3473 3.7 54.8673 3.7H51.4473V6.7ZM61.9359 16V0.859999H64.9359V16H61.9359ZM72.5513 16.24C71.4713 16.24 70.4846 15.9933 69.5913 15.5C68.7113 15.0067 68.0046 14.3333 67.4713 13.48C66.9513 12.6133 66.6912 11.6333 66.6912 10.54C66.6912 9.43333 66.9513 8.45333 67.4713 7.6C68.0046 6.74667 68.7113 6.07333 69.5913 5.58C70.4846 5.08667 71.4713 4.84 72.5513 4.84C73.6313 4.84 74.6113 5.08667 75.4913 5.58C76.3713 6.07333 77.0713 6.74667 77.5913 7.6C78.1246 8.45333 78.3913 9.43333 78.3913 10.54C78.3913 11.6333 78.1246 12.6133 77.5913 13.48C77.0713 14.3333 76.3713 15.0067 75.4913 15.5C74.6113 15.9933 73.6313 16.24 72.5513 16.24ZM72.5513 13.54C73.0979 13.54 73.5713 13.4133 73.9713 13.16C74.3846 12.9067 74.7046 12.5533 74.9313 12.1C75.1713 11.6467 75.2913 11.1267 75.2913 10.54C75.2913 9.95333 75.1713 9.44 74.9313 9C74.7046 8.54667 74.3846 8.19333 73.9713 7.94C73.5713 7.67333 73.0979 7.54 72.5513 7.54C72.0046 7.54 71.5246 7.67333 71.1113 7.94C70.6979 8.19333 70.3713 8.54667 70.1313 9C69.9046 9.44 69.7913 9.95333 69.7913 10.54C69.7913 11.1267 69.9046 11.6467 70.1313 12.1C70.3713 12.5533 70.6979 12.9067 71.1113 13.16C71.5246 13.4133 72.0046 13.54 72.5513 13.54ZM85.5186 20.4C84.6786 20.4 83.8986 20.26 83.1786 19.98C82.4586 19.7 81.8386 19.3067 81.3186 18.8C80.8119 18.3067 80.4453 17.72 80.2186 17.04L82.9986 16.06C83.1453 16.5667 83.4453 16.9667 83.8986 17.26C84.3519 17.5533 84.8919 17.7 85.5186 17.7C86.0119 17.7 86.4386 17.6067 86.7986 17.42C87.1586 17.2467 87.4319 16.9867 87.6186 16.64C87.8186 16.2933 87.9186 15.8867 87.9186 15.42V12.92L88.4986 13.64C88.1253 14.2533 87.6453 14.7133 87.0586 15.02C86.4719 15.3133 85.7853 15.46 84.9986 15.46C83.9853 15.46 83.0786 15.2333 82.2786 14.78C81.4786 14.3133 80.8519 13.68 80.3986 12.88C79.9453 12.0667 79.7186 11.1467 79.7186 10.12C79.7186 9.09333 79.9453 8.18667 80.3986 7.4C80.8519 6.6 81.4719 5.97333 82.2586 5.52C83.0453 5.06667 83.9386 4.84 84.9386 4.84C85.7253 4.84 86.4119 5 86.9986 5.32C87.5853 5.62667 88.0853 6.1 88.4986 6.74L88.1186 7.46V5.08H90.9186V15.42C90.9186 16.38 90.6853 17.2333 90.2186 17.98C89.7519 18.74 89.1119 19.3333 88.2986 19.76C87.4986 20.1867 86.5719 20.4 85.5186 20.4ZM85.4186 12.74C85.9253 12.74 86.3653 12.6333 86.7386 12.42C87.1119 12.2067 87.3986 11.9067 87.5986 11.52C87.8119 11.1333 87.9186 10.68 87.9186 10.16C87.9186 9.64 87.8119 9.18667 87.5986 8.8C87.3853 8.4 87.0919 8.09333 86.7186 7.88C86.3453 7.65333 85.9119 7.54 85.4186 7.54C84.9119 7.54 84.4586 7.65333 84.0586 7.88C83.6719 8.09333 83.3653 8.4 83.1386 8.8C82.9253 9.18667 82.8186 9.64 82.8186 10.16C82.8186 10.6667 82.9253 11.1133 83.1386 11.5C83.3653 11.8867 83.6719 12.1933 84.0586 12.42C84.4586 12.6333 84.9119 12.74 85.4186 12.74Z" fill="#141624"/>
</svg>
